<svg xmlns="http://www.w3.org/2000/svg" width="702.479" height="889.838" viewBox="0 0 702.479 889.838">
  <g id="Layer_2" data-name="Layer 2" transform="translate(0.002 0.02)">
    <g id="Layer_1" data-name="Layer 1">
      <path id="Path_38" data-name="Path 38" d="M623.07,143.07c52.35,64.75,86.21,135.78,78.25,199.05C693.55,405.2,644,460.7,591.62,537.65c-52.35,77.14-107.84,175.93-187.76,200.53-80.1,24.6-184.62-24.79-266.94-101.93S-5.52,454.59.4,355.81s77.7-191.65,160-256.39S335.6-2,417.55,9,570.53,78.33,623.07,143.07Z" fill="#f2f2f2"/>
      <path id="Path_39" data-name="Path 39" d="M334.81,433.46c54,0,83,36.08,88.39,72.72,5.48,37.48-.77,68.51.79,113.82,1.06,30.51,14.49,50.89,23.1,78.09s-221.18,34.06-219.81,8.62,17.81-51.5,18.4-83.19c.6-32.31-4-51.7-3.37-104.26C242.78,477.77,280.79,433.46,334.81,433.46Z" fill-rule="evenodd"/>
      <path id="Path_40" data-name="Path 40" d="M113.09,888.29c-2.07-25.54,9.32-116.62,44.53-184.63,131.51-72.83,296.51-38.14,361.75,0,22.09,22.44,38.06,171.52,33.23,182.22" fill="#ffd98e" fill-rule="evenodd"/>
      <path id="Path_41" data-name="Path 41" d="M189,885.88c2.07-16.57,5.35-43.27,10.7-68" fill="none" stroke="#ff8364" stroke-linecap="round" stroke-linejoin="round" stroke-width="5.73"/>
      <path id="Path_42" data-name="Path 42" d="M480.67,885.88c-2.07-16.57-5.35-43.27-10.7-68" fill="none" stroke="#ff8364" stroke-linecap="round" stroke-linejoin="round" stroke-width="5.73"/>
      <path id="Path_43" data-name="Path 43" d="M251.34,551.72a14.63,14.63,0,1,1,4.3,10.349,14.63,14.63,0,0,1-4.3-10.349Z" fill="#d18c65" fill-rule="evenodd"/>
      <path id="Path_44" data-name="Path 44" d="M385.5,551.72a14.63,14.63,0,1,1,14.627,14.62A14.63,14.63,0,0,1,385.5,551.72Z" fill="#d18c65" fill-rule="evenodd"/>
      <path id="Path_45" data-name="Path 45" d="M393.07,299.87c-14.76-11.51-18.4,1.35-20.71,9s-2.14,21.14,9.43,20.85c10.14,9.09,19.58-2.68,22.48-8.66S414.29,302.11,393.07,299.87Z" fill="#ff8364" fill-rule="evenodd"/>
      <path id="Path_46" data-name="Path 46" d="M402.83,291.67c-5.09,1.79-7.95,4.23-9.57,8.47" fill="none" stroke="#ffd98e" stroke-linecap="round" stroke-linejoin="round" stroke-width="2.83"/>
      <path id="Path_47" data-name="Path 47" d="M296.82,368.18a17.14,17.14,0,1,1,5.038,12.128A17.14,17.14,0,0,1,296.82,368.18Z" fill="#6bd5e1" fill-rule="evenodd"/>
      <path id="Path_48" data-name="Path 48" d="M178.13,375.74l47.47-12.05,19.23,75.78-47.46,12Z" fill="#dfdfdf" fill-rule="evenodd"/>
      <path id="Path_49" data-name="Path 49" d="M188.13,384.09l32.66-8.29,2.52,9.93L190.65,394Z" fill="#ff8364" fill-rule="evenodd"/>
      <path id="Path_50" data-name="Path 50" d="M193.39,404.8l32.66-8.29" fill="none" stroke="#6bd5e1" stroke-linecap="round" stroke-linejoin="round" stroke-width="3.11"/>
      <path id="Path_51" data-name="Path 51" d="M196.13,415.58l32.67-8.29" fill="none" stroke="#6bd5e1" stroke-linecap="round" stroke-linejoin="round" stroke-width="3.11"/>
      <path id="Path_52" data-name="Path 52" d="M199,426.83l32.69-8.3" fill="none" stroke="#6bd5e1" stroke-linecap="round" stroke-linejoin="round" stroke-width="3.11"/>
      <path id="Path_53" data-name="Path 53" d="M201.74,437.7l12.82-3.26" fill="none" stroke="#6bd5e1" stroke-linecap="round" stroke-linejoin="round" stroke-width="3.11"/>
      <path id="Path_54" data-name="Path 54" d="M229.29,430.7l5.14-1.3" fill="none" stroke="#6bd5e1" stroke-linecap="round" stroke-linejoin="round" stroke-width="3.11"/>
      <path id="Path_55" data-name="Path 55" d="M146.66,203.68,269.5,145.19l38.39,80.61L185.05,284.3Z" fill="#dfdfdf" fill-rule="evenodd"/>
      <path id="Path_56" data-name="Path 56" d="M189.14,266.47l12.22-35.77,22.77,4.3,8.94-44.11,22,3.66,6.4-31.12" fill="none" stroke="#ff8364" stroke-linecap="round" stroke-linejoin="round" stroke-width="3.11"/>
      <path id="Path_57" data-name="Path 57" d="M197.05,233a6.33,6.33,0,1,1,3.6,3.254,6.33,6.33,0,0,1-3.6-3.254Z" fill="#ffd98e" fill-rule="evenodd"/>
      <path id="Path_58" data-name="Path 58" d="M227.65,194.62a6.33,6.33,0,1,1,3.6,3.254,6.34,6.34,0,0,1-3.6-3.254Z" fill="#ffd98e" fill-rule="evenodd"/>
      <path id="Path_59" data-name="Path 59" d="M460.34,262.6A21.7,21.7,0,1,1,482,284.3a21.7,21.7,0,0,1-21.66-21.7Z" fill="#ffd98e" fill-rule="evenodd"/>
      <path id="Path_60" data-name="Path 60" d="M518.67,258.81A24.983,24.983,0,0,1,489.8,290.1" fill="none" stroke="#ff8364" stroke-linecap="round" stroke-linejoin="round" stroke-width="3.11"/>
      <path id="Path_61" data-name="Path 61" d="M468.88,279.08,460.56,294l34.35,5.52-3.76-17.38" fill="#ffd98e" fill-rule="evenodd"/>
      <path id="Path_62" data-name="Path 62" d="M476.92,262.6a5.12,5.12,0,1,1,5.12,5.12,5.12,5.12,0,0,1-5.12-5.12Z" fill="#1b3c87" fill-rule="evenodd"/>
      <path id="Path_63" data-name="Path 63" d="M512.17,257.48a5.12,5.12,0,1,1,5.12,5.12A5.12,5.12,0,0,1,512.17,257.48Z" fill="#ffd98e" fill-rule="evenodd"/>
      <path id="Path_64" data-name="Path 64" d="M100.91,99.47,133,108.14l-31.6,117L69.31,216.5Z" fill="#6ed5e1" fill-rule="evenodd"/>
      <path id="Path_65" data-name="Path 65" d="M79.51,178.73l17.67,4.78" fill="none" stroke="#ffd98e" stroke-linecap="round" stroke-linejoin="round" stroke-width="4.23"/>
      <path id="Path_66" data-name="Path 66" d="M73.9,199.49l17.68,4.77" fill="none" stroke="#ffd98e" stroke-linecap="round" stroke-linejoin="round" stroke-width="4.23"/>
      <path id="Path_67" data-name="Path 67" d="M85.11,158l17.68,4.78" fill="none" stroke="#ffd98e" stroke-linecap="round" stroke-linejoin="round" stroke-width="4.23"/>
      <path id="Path_68" data-name="Path 68" d="M90.72,137.23,108.39,142" fill="none" stroke="#ffd98e" stroke-linecap="round" stroke-linejoin="round" stroke-width="4.23"/>
      <path id="Path_69" data-name="Path 69" d="M96.32,116.48,114,121.25" fill="none" stroke="#ffd98e" stroke-linecap="round" stroke-linejoin="round" stroke-width="4.23"/>
      <path id="Path_70" data-name="Path 70" d="M431.43,75.21,552.6,104.46l-20,82.62L411.48,157.82Z" fill="#dfdfdf" fill-rule="evenodd"/>
      <path id="Path_71" data-name="Path 71" d="M503.9,164.78a13.06,13.06,0,1,1,9.63,15.76,13.06,13.06,0,0,1-9.63-15.76Z" fill="#ff8364" fill-rule="evenodd"/>
      <path id="Path_72" data-name="Path 72" d="M507.76,175.53l-8.71,22.71,12.16-2.75,7.81,7.25L520.59,178" fill="#ff8364" fill-rule="evenodd"/>
      <path id="Path_73" data-name="Path 73" d="M438.59,96.64l95.66,23.1" fill="none" stroke="#6bd5e1" stroke-linecap="round" stroke-linejoin="round" stroke-width="3.11"/>
      <path id="Path_74" data-name="Path 74" d="M433.05,119.31l57.77,13.95" fill="none" stroke="#6bd5e1" stroke-linecap="round" stroke-linejoin="round" stroke-width="3.11"/>
      <path id="Path_75" data-name="Path 75" d="M239.14,86.48l-13-14.09,18.7-4.23,18.71-4.23-5.69,18.32-5.69,18.31Z" fill="#6bd5e1" fill-rule="evenodd"/>
      <path id="Path_76" data-name="Path 76" d="M497.43,381.88,479.62,389l2.73-19,2.73-19,15.07,11.85,15.08,11.86Z" fill="#ffd98e" fill-rule="evenodd"/>
      <path id="Path_77" data-name="Path 77" d="M351.24,153a9.3,9.3,0,1,1,9.3,9.3A9.3,9.3,0,0,1,351.24,153Z" fill="none" stroke="#ff8364" stroke-linecap="round" stroke-linejoin="round" stroke-width="3.11"/>
      <path id="Path_78" data-name="Path 78" d="M91.4,308.8a9.3,9.3,0,1,1,9.3,9.3,9.3,9.3,0,0,1-9.3-9.3Z" fill="#ffd98e" fill-rule="evenodd"/>
      <path id="Path_79" data-name="Path 79" d="M301.81,606.75H364s.29,64.25,0,89.53c0,10.43-62.17,9.24-62.17,0Z" fill="#d18c65" fill-rule="evenodd"/>
      <path id="Path_80" data-name="Path 80" d="M270,545.32c0-47.72,29-86.41,64.83-86.41s64.84,38.69,64.84,86.41-29,86.42-64.84,86.42S270,593.05,270,545.32Z" fill="#e49d75" fill-rule="evenodd"/>
      <path id="Path_81" data-name="Path 81" d="M369.84,452.72c-16.47,38.27-84.71,75.63-113.45,84.37C251.85,514.24,281.26,416.91,369.84,452.72Z" fill-rule="evenodd"/>
      <path id="Path_82" data-name="Path 82" d="M333.37,451.54c-12.47,4.75,28.07,69.59,76.65,85.55C429.85,508.86,384.13,450.19,333.37,451.54Z" fill-rule="evenodd"/>
      <path id="Path_83" data-name="Path 83" d="M426.07,17.13A17.14,17.14,0,1,1,443.2,34.26,17.14,17.14,0,0,1,426.07,17.13Z" fill="#ffd98e" fill-rule="evenodd"/>
      <path id="Path_84" data-name="Path 84" d="M130.62,467.56a16,16,0,1,1,16,16A16,16,0,0,1,130.62,467.56Z" fill="none" stroke="#6bd5e1" stroke-linecap="round" stroke-linejoin="round" stroke-width="3.11"/>
      <path id="Path_85" data-name="Path 85" d="M485.13,460.82a9.3,9.3,0,1,1,2.727,6.58A9.31,9.31,0,0,1,485.13,460.82Z" fill="none" stroke="#ff8364" stroke-linecap="round" stroke-linejoin="round" stroke-width="3.11"/>
      <path id="Path_86" data-name="Path 86" d="M623.07,143.82c52.35,64.74,86.21,135.78,78.25,199C693.55,406,644,461.44,591.62,538.4c-52.35,77.14-107.84,175.92-187.76,200.52C323.76,763.53,219.24,714.14,136.92,637S-5.52,455.34.4,356.55s77.7-191.64,160-256.39S335.6-1.21,417.55,9.7,570.53,79.07,623.07,143.82Z" fill="#f2f2f2"/>
      <path id="Path_87" data-name="Path 87" d="M334.81,434.2c54,0,83,36.09,88.39,72.73,5.48,37.47-.77,68.5.79,113.81,1.06,30.52,14.49,50.89,23.1,78.1s-221.18,34.06-219.81,8.61,17.81-51.5,18.4-83.19c.6-32.3-4-51.7-3.37-104.25C242.78,478.51,280.79,434.2,334.81,434.2Z" fill-rule="evenodd"/>
      <path id="Path_88" data-name="Path 88" d="M113.09,889c-2.07-25.54,9.32-116.62,44.53-184.62,131.51-72.83,296.51-38.15,361.75,0,22.09,22.44,38.06,171.51,33.23,182.21" fill="#5ba2ff" fill-rule="evenodd"/>
      <path id="Path_89" data-name="Path 89" d="M189,886.62c2.07-16.57,5.35-43.27,10.7-68" fill="none" stroke="#3580eb" stroke-linecap="round" stroke-linejoin="round" stroke-width="5.73"/>
      <path id="Path_90" data-name="Path 90" d="M480.67,886.62c-2.07-16.57-5.35-43.27-10.7-68" fill="none" stroke="#3580eb" stroke-linecap="round" stroke-linejoin="round" stroke-width="5.73"/>
      <path id="Path_91" data-name="Path 91" d="M251.34,552.46a14.63,14.63,0,1,1,4.3,10.349,14.63,14.63,0,0,1-4.3-10.349Z" fill="#d18c65" fill-rule="evenodd"/>
      <path id="Path_92" data-name="Path 92" d="M385.5,552.46a14.63,14.63,0,1,1,14.627,14.62A14.63,14.63,0,0,1,385.5,552.46Z" fill="#d18c65" fill-rule="evenodd"/>
      <path id="Path_93" data-name="Path 93" d="M393.07,300.62c-14.76-11.52-18.4,1.35-20.71,9s-2.14,21.14,9.43,20.85c10.14,9.1,19.58-2.67,22.48-8.65S414.29,302.86,393.07,300.62Z" fill="#6cd5e1" fill-rule="evenodd"/>
      <path id="Path_94" data-name="Path 94" d="M402.83,292.41c-5.09,1.79-7.95,4.23-9.57,8.47" fill="#c6daf8" stroke="#c7daf8" stroke-linecap="round" stroke-linejoin="round" stroke-width="2.83"/>
      <path id="Path_95" data-name="Path 95" d="M296.82,368.92a17.13,17.13,0,1,1,5.035,12.13A17.14,17.14,0,0,1,296.82,368.92Z" fill="#6bd5e1" fill-rule="evenodd"/>
      <path id="Path_96" data-name="Path 96" d="M178.13,376.48l47.47-12.05,19.23,75.78-47.46,12.05Z" fill="#dfdfdf" fill-rule="evenodd"/>
      <path id="Path_97" data-name="Path 97" d="M188.13,384.83l32.66-8.29,2.52,9.93-32.66,8.29Z" fill="#5ea0ff" stroke="#5ea0ff" stroke-width="1" fill-rule="evenodd"/>
      <path id="Path_98" data-name="Path 98" d="M193.39,405.55l32.66-8.3" fill="none" stroke="#6bd5e1" stroke-linecap="round" stroke-linejoin="round" stroke-width="3.11"/>
      <path id="Path_99" data-name="Path 99" d="M196.13,416.33,228.8,408" fill="none" stroke="#6bd5e1" stroke-linecap="round" stroke-linejoin="round" stroke-width="3.11"/>
      <path id="Path_100" data-name="Path 100" d="M199,427.57l32.69-8.3" fill="none" stroke="#6bd5e1" stroke-linecap="round" stroke-linejoin="round" stroke-width="3.11"/>
      <path id="Path_101" data-name="Path 101" d="M201.74,438.44l12.82-3.25" fill="none" stroke="#6bd5e1" stroke-linecap="round" stroke-linejoin="round" stroke-width="3.11"/>
      <path id="Path_102" data-name="Path 102" d="M229.29,431.44l5.14-1.3" fill="none" stroke="#6bd5e1" stroke-linecap="round" stroke-linejoin="round" stroke-width="3.11"/>
      <path id="Path_103" data-name="Path 103" d="M146.66,204.43l122.84-58.5,38.39,80.62L185.05,285Z" fill="#c5daf8" fill-rule="evenodd"/>
      <path id="Path_104" data-name="Path 104" d="M189.14,267.21l12.22-35.76,22.77,4.24,8.94-44.11,22,3.66,6.4-31.11" fill="none" stroke="#5ea0ff" stroke-linecap="round" stroke-linejoin="round" stroke-width="3.11"/>
      <path id="Path_105" data-name="Path 105" d="M197.05,233.79a6.34,6.34,0,1,1,8.45,3,6.34,6.34,0,0,1-8.45-3Z" fill="#6dd5e1" fill-rule="evenodd"/>
      <path id="Path_106" data-name="Path 106" d="M227.65,195.36a6.33,6.33,0,1,1,3.6,3.254,6.34,6.34,0,0,1-3.6-3.254Z" fill="#6dd5e1" fill-rule="evenodd"/>
      <path id="Path_107" data-name="Path 107" d="M460.34,263.34A21.7,21.7,0,1,1,482,285,21.7,21.7,0,0,1,460.34,263.34Z" fill="#c6daf8" fill-rule="evenodd"/>
      <path id="Path_108" data-name="Path 108" d="M518.67,259.56a24.6,24.6,0,0,1,.94,6.8,24.95,24.95,0,0,1-29.82,24.48" fill="none" stroke="#609dff" stroke-linecap="round" stroke-linejoin="round" stroke-width="3.11"/>
      <path id="Path_109" data-name="Path 109" d="M468.88,279.82l-8.32,14.89,34.35,5.53-3.76-17.39" fill="#b6cced" fill-rule="evenodd"/>
      <path id="Path_110" data-name="Path 110" d="M476.92,263.34a5.12,5.12,0,1,1,5.12,5.12,5.12,5.12,0,0,1-5.12-5.12Z" fill="#1b3c87" fill-rule="evenodd"/>
      <path id="Path_111" data-name="Path 111" d="M512.17,258.22a5.12,5.12,0,1,1,5.12,5.12,5.12,5.12,0,0,1-5.12-5.12Z" fill="#6dd5e1" fill-rule="evenodd"/>
      <path id="Path_112" data-name="Path 112" d="M100.91,100.21,133,108.89l-31.6,117-32.12-8.67Z" fill="#618dd3" fill-rule="evenodd"/>
      <path id="Path_113" data-name="Path 113" d="M79.51,179.48l17.67,4.77" fill="none" stroke="#6dd5e1" stroke-linecap="round" stroke-linejoin="round" stroke-width="4.23"/>
      <path id="Path_114" data-name="Path 114" d="M73.9,200.23,91.58,205" fill="none" stroke="#6dd5e1" stroke-linecap="round" stroke-linejoin="round" stroke-width="4.23"/>
      <path id="Path_115" data-name="Path 115" d="M85.11,158.73l17.68,4.77" fill="none" stroke="#6dd5e1" stroke-linecap="round" stroke-linejoin="round" stroke-width="4.23"/>
      <path id="Path_116" data-name="Path 116" d="M90.72,138l17.67,4.77" fill="none" stroke="#6dd5e1" stroke-linecap="round" stroke-linejoin="round" stroke-width="4.23"/>
      <path id="Path_117" data-name="Path 117" d="M96.32,117.22,114,122" fill="none" stroke="#6dd5e1" stroke-linecap="round" stroke-linejoin="round" stroke-width="4.23"/>
      <path id="Path_118" data-name="Path 118" d="M431.43,76,552.6,105.21l-20,82.61L411.48,158.56Z" fill="#dfdfdf" fill-rule="evenodd"/>
      <path id="Path_119" data-name="Path 119" d="M503.9,165.52a13.06,13.06,0,1,1,9.63,15.76,13.06,13.06,0,0,1-9.63-15.76Z" fill="#6cd5e1" fill-rule="evenodd"/>
      <path id="Path_120" data-name="Path 120" d="M507.76,176.28,499.05,199l12.16-2.76,7.81,7.25,1.57-24.75" fill="#6cd5e1" fill-rule="evenodd"/>
      <path id="Path_121" data-name="Path 121" d="M438.59,97.39l95.66,23.1" fill="none" stroke="#6bd5e1" stroke-linecap="round" stroke-linejoin="round" stroke-width="3.11"/>
      <path id="Path_122" data-name="Path 122" d="M433.05,120.06,490.82,134" fill="none" stroke="#6bd5e1" stroke-linecap="round" stroke-linejoin="round" stroke-width="3.11"/>
      <path id="Path_123" data-name="Path 123" d="M239.14,87.22l-13-14.08,18.7-4.23,18.71-4.23L257.85,83l-5.69,18.32Z" fill="#6bd5e1" fill-rule="evenodd"/>
      <path id="Path_124" data-name="Path 124" d="M497.43,382.62l-17.81,7.13,2.73-19,2.73-19,15.07,11.85,15.08,11.85Z" fill="#c6daf8" fill-rule="evenodd"/>
      <path id="Path_125" data-name="Path 125" d="M351.24,153.76a9.3,9.3,0,1,1,9.3,9.3,9.3,9.3,0,0,1-9.3-9.3Z" fill="#6cd5e1" stroke="#5ea0ff" stroke-linecap="round" stroke-linejoin="round" stroke-width="3.11"/>
      <path id="Path_126" data-name="Path 126" d="M91.4,309.54a9.3,9.3,0,1,1,9.3,9.3,9.3,9.3,0,0,1-9.3-9.3Z" fill="#c6daf8" fill-rule="evenodd"/>
      <path id="Path_127" data-name="Path 127" d="M301.81,607.49H364s.29,64.25,0,89.54c0,10.43-62.17,9.23-62.17,0Z" fill="#d18c65" fill-rule="evenodd"/>
      <path id="Path_128" data-name="Path 128" d="M270,546.07c0-47.73,29-86.41,64.83-86.41s64.84,38.68,64.84,86.41-29,86.41-64.84,86.41S270,593.79,270,546.07Z" fill="#e49d75" fill-rule="evenodd"/>
      <path id="Path_129" data-name="Path 129" d="M369.84,453.46c-16.47,38.27-84.71,75.64-113.45,84.38C251.85,515,281.26,417.66,369.84,453.46Z" fill-rule="evenodd"/>
      <path id="Path_130" data-name="Path 130" d="M333.37,452.28C320.9,457,361.44,521.87,410,537.84,429.85,509.6,384.13,450.94,333.37,452.28Z" fill-rule="evenodd"/>
      <path id="Path_131" data-name="Path 131" d="M426.07,17.88A17.14,17.14,0,1,1,443.2,35,17.14,17.14,0,0,1,426.07,17.88Z" fill="#c7daf8" fill-rule="evenodd"/>
      <path id="Path_132" data-name="Path 132" d="M130.62,468.3a16,16,0,1,1,16,16A16,16,0,0,1,130.62,468.3Z" fill="none" stroke="#6bd5e1" stroke-linecap="round" stroke-linejoin="round" stroke-width="3.11"/>
      <path id="Path_133" data-name="Path 133" d="M485.13,461.56a9.3,9.3,0,1,1,2.727,6.58,9.31,9.31,0,0,1-2.727-6.58Z" fill="#6cd5e1" stroke="#5ea0ff" stroke-linecap="round" stroke-linejoin="round" stroke-width="3.11"/>
    </g>
  </g>
</svg>
